<svg xmlns="http://www.w3.org/2000/svg" viewBox="0 0 2441.79 323.87">
  <path d="M2426.29 271.07c-8.64 0-15.49-6.2-15.49-15.17s6.85-15.11 15.49-15.11 15.5 6.2 15.5 15.22-6.85 15.06-15.5 15.06zm0-28.11a13 13 0 1013.05 12.94 12.7 12.7 0 00-13.05-12.9zm2.83 20.17l-1.52-4.56a1.82 1.82 0 00-1.69-1.25h-1.79v5.81h-2.23v-14.3h4.57c3.2 0 5.05 1.31 5.05 4.14 0 2.06-1.79 3.1-2.93 3.48a1.79 1.79 0 011 1.14l2 5.54zm-2.77-12.39h-2.23v4.67h1.79c2.39 0 3.32-1 3.32-2.39 0-1.52-.71-2.28-2.88-2.28zM0 221.4q10.34 25 28.39 37.62t43.54 12.65q35.38-.41 55.29-20.43t20.28-55.13q.08-28.49-13.42-45.08t-41.89-31.27q-16.93-8.85-29.76-16t-20-16.45Q35.15 78 35.05 62.56q.24-19.22 11.15-30.3t30.43-11.33q14.19 0 24.61 5.84a38.26 38.26 0 0115.91 17l18.08-10.83q-9-16.28-23.27-24.61T78.1 0Q47.77.47 29.74 17.4T11.22 62.19q.21 26.39 17 42.66t47.68 31.5q23 11.22 36 23.9t13.21 35.82q-.19 26.22-13.84 40.36T73 250.73q-19.21-.09-33.18-10.46t-19.6-29.71L0 221.39" fill="#ffffff"/>
  <path d="M693.84 264.79l-83-110.25q28.14-.21 44-15.34t16.08-42.51q0-31.77-18.7-47.41T596 33.64h-42.38v231.15h21V154.54h12.62l81.13 110.25zM574.6 52h21q27.47-.37 40.16 9.49T648.34 96q.09 24.26-12.9 33.08t-39.8 8.33h-21V52" fill-rule="evenodd" fill="#ffffff"/>
  <path d="M713.67 226q9.21 22.31 25.33 33.59t39 11.3q31.62-.33 49.41-18.26t18.08-49.28q.09-25.47-12-40.31t-37.41-27.93q-15.13-8-26.58-14.34t-17.94-14.67Q745.08 97.82 745 84q.19-17.18 10-27.07t27.19-10.12q12.71 0 22 5.21a34.23 34.23 0 0114.22 15.16l16.14-9.68q-8-14.56-20.8-22t-30.29-7.43q-27.06.43-43.22 15.56t-16.52 40q.21 23.63 15.22 38.13T781.51 150q20.58 10 32.16 21.37t11.81 32q-.15 23.42-12.35 36.05t-34.21 12.8q-17.19-.12-29.64-9.35t-17.53-26.58L713.68 226" fill="#ffffff"/>
  <path d="M321.47 264.79h21.34l30.69-78.25h94.36l29.41 78.25h22.91L422.93 24.6 321.47 264.79zm59.16-96.32l41-100.6 39.42 100.6h-80.42" fill-rule="evenodd" fill="#ffffff"/>
  <path d="M246.29 264.79h21V53.31h63.67V33.64H182.61v19.67h63.68v211.48M1314.18 221.4q10.32 25 28.37 37.62t43.58 12.65q35.34-.41 55.27-20.43t20.27-55.13q.11-28.49-13.41-45.08t-41.9-31.27c-11.31-5.9-21.2-11.28-29.76-16s-15.21-10.23-20.06-16.42-7.26-14.44-7.32-24.71q.19-19.22 11.15-30.3t30.42-11.36c9.48 0 17.66 2 24.61 5.84a38.37 38.37 0 0115.91 17l18.06-10.83q-8.94-16.28-23.25-24.61T1392.24 0q-30.27.47-48.35 17.4t-18.5 44.79q.18 26.39 17 42.66t47.67 31.5q23 11.22 36 23.9t13.2 35.82q-.18 26.22-13.86 40.36t-38.24 14.3q-19.23-.09-33.19-10.46t-19.59-29.71l-20.24 10.83M1560.45 264.79h21V53.31h63.68V33.64h-148.34v19.67h63.66v211.48" fill="#ffffff"/>
  <path d="M1827.59 264.79l-83.06-110.25q28.21-.21 44-15.34t16.1-42.51q0-31.77-18.7-47.41t-56.29-15.62h-42.33v231.13h21V154.54h12.63L1802 264.79zM1708.32 52h21q27.47-.37 40.16 9.49T1782.06 96q.07 24.26-12.89 33.08t-39.82 8.33h-21V52" fill-rule="evenodd" fill="#ffffff"/>
  <path d="M1865.14 264.79h21V33.64h-21z" fill="#ffffff"/>
  <path d="M1972.32 142.62V52.05h14.22a215.59 215.59 0 0129.19 1.26q12.09 1.5 20 7.81a38.63 38.63 0 0111.4 15.64 58.17 58.17 0 014.13 22.2q-.06 19.29-7.64 28.73t-22 12.32q-14.41 3-35 2.64zm-21 122.17h21V161h24.25q38.39.28 57.62-14.77t19.29-48.94q-.11-17.15-6.11-30.67a53.05 53.05 0 00-16.74-21.4A57.45 57.45 0 002026 35.3a180 180 0 00-29.71-1.69h-44.88v231.18" fill-rule="evenodd" fill="#ffffff"/>
  <path d="M2120.81 264.79h114.35v-19.68h-93.36v-99.63h93.36V125.8h-93.36V53.3h93.36V33.64h-114.35v231.15M2276.3 226q9.24 22.31 25.33 33.59t38.94 11.3q31.6-.33 49.43-18.26t18.1-49.28q.12-25.47-12-40.31t-37.4-27.93q-15.15-8-26.58-14.34t-18-14.67q-6.42-8.33-6.55-22.1.18-17.17 10-27.07c6.54-6.61 15.63-10 27.19-10.12 8.51 0 15.83 1.76 22 5.21A34.25 34.25 0 012381 67.21l16.14-9.68q-8-14.56-20.8-22t-30.26-7.43q-27.09.43-43.23 15.56t-16.54 40q.18 23.63 15.2 38.13t42.64 28.21q20.57 10 32.18 21.37t11.81 32c-.12 15.61-4.27 27.64-12.36 36.05s-19.55 12.7-34.21 12.8q-17.18-.12-29.65-9.35t-17.5-26.58l-18.1 9.71" fill="#ffffff"/>
  <path d="M1121.18 294.33l-.5 11.48s0-3.39-8.57-3.14V294z" fill="#f3f4f4"/>
  <path d="M1119.68 294.58v7.65a9 9 0 00-5.82-1.19v-6.65z" fill="#fff"/>
  <path d="M1093.34 313.84l1.38-69h.93l6.95-9.1a129.08 129.08 0 0010.82 18.45 46.74 46.74 0 0017.46 15.3l-.32 25.1H1129l-16.64-.5v8.4h3.64c3.13 0 4.88 1.76 4.88 4.33s-1.69 4.2-6.26 4.2h-7.69v9.29h-.44s-2.57 0-9.39-.5c-2.31 0-3.81-3-3.69-5.4a2.6 2.6 0 01-.07-.57z" fill="#dc5759"/>
  <path d="M1112.36 302.17v.31h-5a4.49 4.49 0 01-1.56-.44z" fill="#cfd1d2"/>
  <path d="M1101.66 308.5a20.59 20.59 0 00-6.26.44c0-1.38 1.44-65 1.44-65l5.63-6 .88 1.82z" fill="#c4091e"/>
  <path d="M1094 314.28a3.79 3.79 0 000 1.5c0 3.14 3.56 3.77 3.56 3.77v-8a3.81 3.81 0 00-3.56 2.73z" fill="#f3f4f4"/>
  <path d="M1104.91 318h-5.63v-3.7h5.63z" fill="#b80023"/>
  <path d="M1105.1 311.77v3h-5.63v-3z" fill="#860017"/>
  <path d="M1110.48 303.17v7.34h-6.69v-9.09a4 4 0 002.94 1.81 23.48 23.48 0 003.75-.06z" fill="#fff"/>
  <path d="M1119.68 304.62c.44 4.45-2 4.51-3.82 4.51h-3.44v-6.27h3.63a5.25 5.25 0 013.63 1.76z" fill="#b80023"/>
  <path d="M1104.6 295.46s.69-1.07 3.57-1.13h4.06V298h-7.44a14.08 14.08 0 01-.19-2.54z" fill="#860017"/>
  <path d="M1112.11 298v2.88h-4.82c-1.38 0-2.31-.81-2.56-3z" fill="#97001b"/>
  <path d="M1108.48 293.57a6.26 6.26 0 00-4.69 1.38 4.11 4.11 0 00-.88 1.38l.31 2.07a3.71 3.71 0 011.19-2.69 4.77 4.77 0 013.69-1.32c4.82 0 22.09.88 22.09.88v-.88z" fill="#dadcdd"/>
  <path d="M1129.13 271.3l-.44 21.14h-6.26l.56-25.59a45.5 45.5 0 006.14 4.45z" fill="#c4091e"/>
  <path d="M1120.74 264.78l-.62 28.92h-6.7l.82-35.89a76.49 76.49 0 006.5 6.97z" fill="#fff"/>
  <path d="M1112.23 255.31l-.81 36.88a23.44 23.44 0 00-6.88.69c0-10.66 1.25-47.67 1.25-47.67a117.3 117.3 0 006.44 10.1z" fill="#c4091e"/>
  <path d="M1108.23 294.2h.31l22.15.82.5-25.1h-.81l-.57 24.09-21.27-.75a6.27 6.27 0 00-4.63 1.38l-.37.5 1.56-54.64h-.94l-1.56 57.59a4.89 4.89 0 004.75 5h8.39c1.56 0 4.19.88 4.19 3.39s-2 4.14-5.82 3.76H1107l-8.64-.38a5.81 5.81 0 00-4.69 1.82l1.5-66.87h-.5s-1.5 69.51-1.56 69.51a8 8 0 000 2.07 5.08 5.08 0 004.69 3.83c6.7.37 8.32 0 8.39 0h1v-8.47h-.82v8h-7.82c-2.75 0-4.13-1.95-4.13-4.9s1.25-3.76 4.51-3.76h8.57l7.38.31c4.44 0 6.26-2.13 6.26-4.07h.31v-12.5h-1.13v9.79a6.22 6.22 0 00-4.44-2h-8.32a4.13 4.13 0 01-4.25-3.89 4 4 0 011-2.83 5.26 5.26 0 013.92-1.7z"/>
  <path d="M1114.61 311.77h-16a5.93 5.93 0 00-1.88 0 4 4 0 00-2.94 4.33 3.82 3.82 0 01.5-1.89 4.5 4.5 0 014.25-2.07H1115c4.81 0 6.25-2.51 6.25-4.58-.45 1.82-2.2 4.21-6.64 4.21z" fill="#e0e1e3"/>
  <path d="M1096.47 311.77V318s-2.07-.75-2.07-4.45c.25.04.25-.72 2.07-1.78z" fill="#fff"/>
  <path d="M1052 282.28a4.27 4.27 0 00-1.13 4.83 1.3 1.3 0 001.06.5 3.59 3.59 0 002.63-1.25l223.71-237.77a4.2 4.2 0 001.13-4.76 1.19 1.19 0 00-1-.57 3.81 3.81 0 00-2.5 1.32z" fill="#f6a935"/>
  <path d="M1050.86 281.28a5.78 5.78 0 00-1.25 7 3 3 0 002.31 1.26 5.45 5.45 0 003.69-1.89l223.66-237.7a5.77 5.77 0 001.26-7 2.94 2.94 0 00-2.26-1.26 5.21 5.21 0 00-4 1.88zm1.25 1.13l223.72-237.77a3.88 3.88 0 012.51-1.32 1.67 1.67 0 011 .57 4.16 4.16 0 01-1.13 4.77l-223.85 238a3.6 3.6 0 01-2.62 1.26 1.34 1.34 0 01-1.07-.5 4.27 4.27 0 011.13-4.83z" fill="#1a1818"/>
  <path d="M1282 44.84a4.34 4.34 0 01-4.23-3.47v-.1a4.7 4.7 0 014.08-5.1h.17a4.33 4.33 0 01.87 8.58 4.38 4.38 0 01-.89.09zm-2.48-3.78a2.55 2.55 0 001.08 1.58 2.51 2.51 0 001.92.37 2.56 2.56 0 00-.5-5.07 2.92 2.92 0 00-2.49 3.12z" fill="#1a1818"/>
  <path d="M1104.35 223.31c16.45 34.94 40.35 59 71.63 50.82-10.63 2.82-51.73 18.82-77.07-43.92z" fill="#dc5759"/>
  <path d="M1170.73 155.49s32.41-34.19 43-45.6c14.77-15.88 58.81-63.74 58.81-63.74 3.25 41.78 0 182.43-25 203.82a53.44 53.44 0 01-11.2 3.27c-18.25 1.31-30.45-21.24-65.61-97.75z" fill="#fff"/>
  <path d="M1170.67 155.31c13.57 28.73 46.11 103.32 74.76 97.49-41.54 11.73-114 57-146.08-23.4l70.82-75.29z" fill="#fff"/>
  <path d="M1174.8 164.21c-.82-3.63-1.69-8.21-2.13-10.1l7.44-7.71c0 1.13 4.88 22 7.51 44.54-4-7.47-12.57-26.22-12.82-26.73zM1194.75 128.83a494.13 494.13 0 018.14 89.52c-.44-.62-6.26-10.53-6.76-11.29a529.13 529.13 0 00-7.63-70.13zM1202.51 121.05l8.13-8.15c3.45 21.95 10.45 84.38 3.45 121.08 0 0-5-6.59-5.26-7a517.21 517.21 0 00-6.32-105.93zM1253.56 211.39c-1.37 6.27-5.32 29.8-17.2 40.9l-2.19-.81c8.94-11.54 11.95-31.37 13.14-38z" fill="#c4091e"/>
  <path d="M1259.88 209.13l6.26-2c-5.26 24.27-13.45 42.22-25.9 45.85h-.94c13.57-6.9 18.83-34.5 20.58-43.85zM1240.92 215.47a104.41 104.41 0 01-10.76 33.53c-1-.56-1.87-1.25-3-2a118.44 118.44 0 007.45-29.36zM1219.34 240a154 154 0 003.32-18.45l5.69-1.88a127.34 127.34 0 01-5.69 23.59c-1.07-.94-2.13-2.13-3.32-3.26zM1104.5 222.56l-6 5.92c19.31 44.66 42.49 56.12 77.9 45.65-.04 0-41.96 15.99-71.9-51.57z" fill="#c4091e"/>
  <path d="M1188.5 270.24c-27.84 8.78-58.69-25.1-73-58.66l-5.63 5.77c16.69 39.9 47.35 64.3 78.63 52.89z" fill="#c4091e"/>
  <path d="M1200.63 266.41c-26.65 8.28-60.56-35.51-73.76-66.5l-5.63 5.77c16.33 38.27 48.3 72.46 79.39 60.73z" fill="#c4091e"/>
  <path d="M1212.33 262.83c-26.52 8.16-60.93-43.91-74.2-74.59l-5.56 5.77c15.7 36.2 48.79 80.99 79.76 68.82z" fill="#c4091e"/>
  <path d="M1224.35 258.94c-27.22 8.29-61.44-51.63-75.08-82.62l-5.57 6c15.83 36.07 49.11 89.52 80.71 76.66z" fill="#c4091e"/>
  <path d="M1236.36 255.31c-28.28 8.59-62.19-58.72-75.83-90.91l-5.75 6.28c16.26 36.45 49 98.55 81.33 84.75z" fill="#c4091e"/>
  <path d="M1246.43 253c-29 8.16-63.5-65.62-76.39-98.74l-5.57 5.83c15.33 36.91 49.24 107.07 81.96 92.91z" fill="#c4091e"/>
  <path d="M1218.53 104.05l54-57.9c2.19 28.29 4.32 109.47-5.94 160.79l-44.42 14.74c4.43-38.68-1.33-103.32-3.64-117.63z" fill="#00609f"/>
  <path d="M1238.55 197.28l-2.82 5.64h-3.88l2.07 3.64-2.88 5.65 4.13-3.33 2.06 3.64.5-5.77 4.13-3.39h-3.81l.5-5.77zM1254.38 191.25l-3 5.59h-3.87l2 3.7-2.94 5.58 4.19-3.26 2 3.7.63-5.77 4.19-3.26h-3.82l.57-5.77z" fill="#fff"/>
  <path d="M1233.73 182.09l-2.75 6.28-3.82.56 2.19 3.33-2.75 6.27 4.06-4.27 2.19 3.39v-6l4.13-4.26-3.88.56v-6.27zM1248.18 174.25l-2.75 6.28-3.88.43 2.13 3.46-2.76 6.27 3.88-4.39 2.13 3.45.38-6 4.12-4.08-3.87.38.37-5.9zM1263.57 166.54l-2.88 6.27-3.87.44 2.06 3.45-2.94 6.27 4.19-4.14 2.07 3.45.56-6 4.19-4.08-3.88.38.5-6z" fill="#fff" fill-rule="evenodd"/>
  <path d="M1240.67 157.38l-2.56 6.27-4 .75 2.44 3.27-2.56 6.27 4.07-4.46 2.44 3.27v-5.27l4.13-4.52-4.07.75v-6.27z" fill="#fff"/>
  <path d="M1257.32 147.09l-2.69 6.27-4 .69 2.38 3.33-2.69 6.27 4.13-4.45 2.38 3.32v-6.27l4.19-4.46-4.07.69v-6.27z" fill="#fff" fill-rule="evenodd"/>
  <path d="M1232.85 143.32l-2.44 7.16-3.94 1.56 2.44 2.89-2.44 7.21 3.94-5.39 2.44 2.95v-6l4.13-4.26-3.88.56v-6.27zM1248.12 130.71l-2.5 7.09-3.94 1.38 2.37 3-2.5 7 4-5.21 2.44 3v-6.28l4-5.21-4 1.39v-6.28z" fill="#fff"/>
  <path d="M1265.45 118l-2.63 7.09-4 1.38 2.31 3-2.63 7.15 4.13-5.27 2.32 3.08v-6.27L1269 123l-3.94 1.32V118z" fill="#fff" fill-rule="evenodd"/>
  <path d="M1232.29 96.4l-2.63 9.28-4.63 2.83 3 2.88-2.63 9.29 4.5-7.47 3 3v-7.53l4.44-7.46-4.63 2.82v-7.58zM1240.17 113.09l-2.69 8.72-4.69 2.07 3 3.32-2.75 8.91 4.63-6.65 3 3.39v-7.47l4.13-6.84-4.69 2v-7.46zM1248.43 77.89l-2.63 9.16-4.63 2.57 3 3.08-2.63 9.16 4.44-7.28 3 3v-7.52l4.45-7.27-4.63 2.63v-7.53zM1257.75 96.9l-2.87 8.66-4.76 2 3 3.38-2.87 8.72 4.69-6.58 2.94 3.38V109l4.69-6.59-4.69 2V96.9zM1265.64 60.2l-2.64 9.1-4.69 2.63 3.06 3-2.63 9.16 4.45-7.27 3 3.07v-7.52l4.44-7.28-4.63 2.64V60.2z" fill="#fff"/>
  <path d="M1045.42 297.21l.5 11.61s0-3.39 8.94-3.14v-8.78z" fill="#f3f4f4"/>
  <path d="M1046.79 297.53v7.71a9.32 9.32 0 016.26-1.13v-6.71z" fill="#fff"/>
  <path d="M1074.57 317l-1.31-69.39h-.88l-7.32-9a133.1 133.1 0 01-11.45 18.44 48.39 48.39 0 01-18.27 15.31v25.09h1.66l17.33-.44v8.47h-3.75c-3.19 0-5.07 1.76-5.07 4.33s1.69 4.27 6.57 4.27h8v9.35h.43s2.69 0 9.76-.51a5.14 5.14 0 004.13-5.45c.04-.14.1-.29.17-.47z" fill="#dc5759"/>
  <path d="M1054.68 305.05h5.25a4.8 4.8 0 001.63-.43z" fill="#cfd1d2"/>
  <path d="M1065.81 311.77a20.22 20.22 0 016.76.37c0-1.44-1.44-65.87-1.44-65.87l-5.88-6.27-.88 1.75z" fill="#c4091e"/>
  <path d="M1073.82 317.22a3.81 3.81 0 00-3.57-2.69v8s3.63-.63 3.63-3.77a4.15 4.15 0 00-.06-1.54z" fill="#f3f4f4"/>
  <path d="M1062.43 321.43h6.26v-3.77h-5.94z" fill="#b80023"/>
  <path d="M1062.31 314.53v3.13h5.94v-3.13z" fill="#860017"/>
  <path d="M1056.68 306.06v7.46l7.07-.31v-9.16a4.26 4.26 0 01-3.07 1.82 19.8 19.8 0 01-4 .19z" fill="#fff"/>
  <path d="M1047.17 307.63c-.44 4.45 2.06 4.51 3.94 4.51a31.4 31.4 0 003.63 0v-6.27h-3.82a5 5 0 00-3.75 1.76z" fill="#b80023"/>
  <path d="M1062.81 298.34s-.75-1.13-3.75-1.13h-4.26v3.64h7.82a14.08 14.08 0 00.19-2.51z" fill="#860017"/>
  <path d="M1054.93 300.91v2.89h5c1.44 0 2.44-.75 2.69-3z" fill="#97001b"/>
  <path d="M1058.74 296.4a6.52 6.52 0 014.88 1.44 5.19 5.19 0 01.94 1.38l-.44 2.07a3.66 3.66 0 00-1.19-2.7 5.06 5.06 0 00-3.81-1.38l-23 .82v-.94z" fill="#dadcdd"/>
  <path d="M1037.16 274.13l.5 21.33h6.88l-.62-25.91a59.43 59.43 0 01-6.76 4.58z" fill="#c4091e"/>
  <path d="M1045.92 267.35l.69 29.17h7.07l-.88-36.32a86 86 0 01-6.88 7.15z" fill="#fff"/>
  <path d="M1054.8 257.38l.81 37.64a23.37 23.37 0 017.26.69c0-10.79-1.31-48.31-1.31-48.31s-5.32 8.28-6.76 9.98z" fill="#c4091e"/>
  <path d="M1074.63 317.48a1.46 1.46 0 010-.51l-1.56-69.63h-.94l1.57 67.5a5.81 5.81 0 00-4.88-1.88l-9 .31h-7.64c-3.62 0-5.88-1.38-5.88-3.64s2.82-3.57 4.51-3.63l8.57-.32a5 5 0 005.32-4.64.81.81 0 000-.31l-1.32-58.54h-.87l1.62 55.78v-.51a6.59 6.59 0 00-4.94-1.44l-22.27.75-.38-24.71h-.94l.44 25.59s18.21-.63 23.15-.69h.31a5.22 5.22 0 014 1.13 4 4 0 011.06 2.89 4.19 4.19 0 01-4.19 4.07h-.37l-9.13.44a5 5 0 00-4.57 2.2v-10h-1.69v12.51h.5c0 2.07 2 4.14 6.76 4.14h16.58c3.07 0 4.5 1.32 4.69 3.7a4.32 4.32 0 01-3.63 4.89h-8.13v-8h-.88v9h.44s2.25 0 9.26-.43a5.17 5.17 0 004-2.83 5.61 5.61 0 00.43-3.19z"/>
  <path d="M1069.63 314h-17.14c-4.63 0-6.26-2-6.7-4 0 2.13 1.32 4.64 6.26 4.64l8.13-.38 8.89-.31a5.32 5.32 0 014.38 1.94 3.68 3.68 0 01.68 2.07c0 .04.13-3.96-4.5-3.96z" fill="#e0e1e3"/>
  <path d="M1071 320.93s1.87-.57 1.75-3.77v-1.44a11.49 11.49 0 00-1.94-1z" fill="#fff"/>
  <path d="M884.26 44.83a3.84 3.84 0 00-2.51-1.32 1.62 1.62 0 00-1 .57 4.33 4.33 0 001.19 4.92l230.54 237.7a3.76 3.76 0 002.69 1.26 1.28 1.28 0 001.07-.57 4.23 4.23 0 00-1.25-4.83z" fill="#f6a935"/>
  <path d="M885.63 43.64a5 5 0 00-4.06-1.82 3.19 3.19 0 00-2.32 1.32 5.83 5.83 0 001.38 7l230.73 237.45a5.8 5.8 0 003.75 1.82 3.06 3.06 0 002.32-1.31 5.85 5.85 0 00-1.38-7zm230.73 243.47a1.25 1.25 0 01-1.06.57 3.76 3.76 0 01-2.69-1.26L881.94 49a4.33 4.33 0 01-1.19-4.89 1.62 1.62 0 011-.57 4 4 0 012.51 1.32l230.85 237.45a4.2 4.2 0 011.25 4.8z" fill="#1a1818"/>
  <path d="M877.75 45a4.29 4.29 0 01-.75 0 4.43 4.43 0 01-3.46-5.11 4.35 4.35 0 014.25-3.55h.1A4.74 4.74 0 01882 41.4v.08a4.34 4.34 0 01-4.25 3.52zm0-7a2.56 2.56 0 00-2.46 2.1 2.65 2.65 0 002.06 3.05 2.55 2.55 0 003-2 3 3 0 00-2.65-3.09z" fill="#1a1818"/>
  <path d="M1062.25 226c-16.33 35.82-43.11 60.1-73.64 50.81 34.41 11 60.56 1 80.46-44.42z" fill="#dc5759"/>
  <path d="M887.26 47.84c-2.19 36-5.13 153 18.77 193.85l-.44-.5a32.37 32.37 0 007.63 11.1l3.69 1.13a17.47 17.47 0 004.88 2c7.51-1.25 30.72-6.27 71.76-98.49z" fill="#fff"/>
  <path d="M994.55 154.93c-13.45 29.49-48.54 106-78.45 100 46 12.86 120.93 58.15 152.28-23.71l-73.83-75.85z" fill="#fff"/>
  <path d="M989.67 165l2.07-9.35-7.88-8.09c0 1.13-4.88 22.52-7.7 45.11q6.26-11.49 12.51-26zM968.59 131.22a438.82 438.82 0 00-8.51 89.08l1.38-2.07c1.56-2.45 3.06-4.89 4.57-7.4l1.31-2.26a485.54 485.54 0 017.94-70.52zM960.46 122.87l-8.46-8.72c-3.44 22.21-10.89 84.44-3.32 121.83l.63-.75c1.29-1.63 2.61-3.32 3.94-5.08l.94-1.26a496.6 496.6 0 016.27-106.02zM907.34 213.21c1.32 6.27 5.19 28.29 17.89 41.22a16.86 16.86 0 002.44-.88c-9.38-11.8-12.82-31.37-13.76-38.27zM900.71 211l-6.26-1.94c5.45 24.78 13.83 43.1 27 46.24h.94c-14.05-6.9-20.12-34.69-21.68-44.3zM920.54 217.66A102 102 0 00932 251.42c1-.63 2.07-1.32 3.13-2.14a102 102 0 01-7.76-29.67zM943 242.19l-.75-2.69a7.1 7.1 0 000-1.13 18.64 18.64 0 00-.69-3.45V234c-.56-3.2-1-6.65-1.37-10.36l-6.26-1.94a99.31 99.31 0 005.94 23.71c.88-.96 2.01-2.02 3.13-3.22zM975.41 272.81c28.78 8.47 61-25.1 75.83-59.29l5.88 5.9c-17.9 40.84-48.86 64.49-81.71 53.39z" fill="#c4091e"/>
  <path d="M962.9 269c27.52 8 62.56-35.57 76.64-67.44l5.81 6.28c-16.89 38.24-50.3 72.56-82.45 61.16z" fill="#c4091e"/>
  <path d="M950.32 265.28c27.47 7.9 63.63-43.91 77.45-75.28l5.89 6.27c-16.4 36.64-51.24 80.87-83.34 69.01z" fill="#c4091e"/>
  <path d="M937.81 261.58c28.09 8 64.31-52 78.27-83.69l5.81 6.27c-16.33 36.64-51.42 89.97-84.08 77.42z" fill="#c4091e"/>
  <path d="M925.3 257.69c29.28 8.34 64.87-59.28 79.08-91.91l5.88 6.28c-16.46 37.64-51.18 99.43-85 85.88z" fill="#c4091e"/>
  <path d="M914.6 255.31c30.22 8.53 66.44-66.82 79.64-99.94l6.26 6.27c-15.52 36.77-51.37 108.28-85.71 94.1zM1068.44 231h.31l-6.25-6.27-.5 1.19c-16.27 35.82-43.23 59.85-73.76 50.69 34.4 10.92 60.93 0 80.76-45.35z" fill="#c4091e"/>
  <path d="M943.57 105.24l-56.31-59.41c-1.81 28.8-4.19 111.17 7.19 163.11l45.3 15c-4-39.65 1.69-104.08 3.82-118.7z" fill="#00609f"/>
  <path d="M922.86 198.84l3 5.71h4l-2.19 3.7 3 5.71-4.32-3.38-2.13 3.7-.56-5.84-4.19-3.32h4l-.5-5.84zM906.53 193l3.13 5.64h4l-2.13 3.77 3.13 5.64-4.38-3.32-2.06 3.76-.63-5.77-4.38-3.32h4l-.63-5.84z" fill="#fff"/>
  <path d="M928.05 183.73l2.88 6.27 4 .56-2.25 3.44 2.82 6.27-4.26-4.27-2.24 3.35-.38-6.28-4.25-4.33 4.07.57-.38-6.27zM913.22 175.82l2.88 6.27 4.07.38-2.25 3.45 2.87 6.27-4.31-4.14-2.26 3.45-.37-6-4.26-4.14 4 .38-.38-6.27zM896.64 168l3.07 6.27 4 .38-2.12 3.45 3 6.27-4.38-4.14-2.13 3.45-.56-6.27-4.38-4.14 4.07.44-.57-6.28z" fill="#fff" fill-rule="evenodd"/>
  <path d="M920.79 158.63l2.69 6.65 4.19.75-2.56 3.33 2.69 6.64-4.25-4.52-2.55 3.27v-6.27l-4.25-4.58 4.19.75v-6.27z" fill="#fff"/>
  <path d="M903.71 148.66l2.82 6.27 4.25.69-2.5 3.39 2.82 6.58-4.1-4.39-2.51 3.39v-6.27l-4.31-4.52 4.19.75v-6.27z" fill="#fff" fill-rule="evenodd"/>
  <path d="M928.93 144.52l2.56 7.27 4.13 1.51-2.56 2.95 2.56 7.27-4.13-5.45-2.5 3v-6.09l-4.13-5.46 4.07 1.57v-6.52zM913.22 131.78l2.57 7.15 4.13 1.38-2.51 3 2.57 7.16-4.13-5.27-2.5 3.07V142l-4.13-5.27 4.13 1.38v-6.28z" fill="#fff"/>
  <path d="M895 118.92l2.76 7.21 4.13 1.38-2.38 3.08 2.75 7.21-4.26-5.33-2.44 3.07v-6.27l-4.26-5.33 4.13 1.38v-6.27z" fill="#fff" fill-rule="evenodd"/>
  <path d="M929.8 97.09l2.75 9.41 4.82 2.82-3.13 3 2.69 9.41-4.63-7.53-3.12 2.95v-7.59l-4.7-7.53 4.82 2.82v-7.7zM921.29 114l2.88 8.79 4.88 2.07-3.13 3.39 2.82 8.84-4.74-6.75-3.12 3.39v-7.53l-4.88-6.78 4.94 2.07V114zM912.72 78.39l2.76 9.23 4.81 2.63-3.13 3.07 2.76 9.23-4.7-7.34-3.12 3.07v-7.59l-4.7-7.34 4.88 2.65v-7.61zM903 97.59l2.94 8.78 4.94 1.95-3.07 3.45 3 8.78-4.81-6.65-3.07 3.45v-7.53l-4.93-6.71 4.94 2v-7.58zM894.83 60.45l2.69 9.29 4.88 2.63-3.13 3 2.73 9.3-4.63-7.34-3.17 3.07v-7.65l-4.69-7.34 4.82 2.59v-7.55z" fill="#fff"/>
  <circle cx="877.73" cy="40.66" fill="#f6a935" r="2.71"/>
  <ellipse cx="1282.1" cy="40.56" rx="2.69" ry="2.7" fill="#f6a935"/>
  <path d="M1030.47 95.72h-29.07l-9.11 22.42h-4.92l28.77-70.33 28.36 70.33h-4.91zm-1.63-4.09L1016 59.27l-13 32.36zM1053.51 118.14v-69l57.33 60V49.86h4.51v70l-57.34-60v58.25zM1130.19 118.14V49.86h13.51c6 0 16.59.92 25.19 9.52 7.27 7.27 9.83 17.2 9.83 24.67s-2.56 17.3-9.83 24.57c-8.6 8.6-19.15 9.52-25.19 9.52zm4.5-4.09h8.91c18 0 30.41-12.29 30.41-30 0-17.51-12.49-30.1-30.41-30.1h-8.91z"/>
</svg>
